<svg id="WA-icon" xmlns="http://www.w3.org/2000/svg" width="144" height="111" viewBox="0 0 1440 1110">
  <defs>
    <style>
      .cls-1 {
        fill: #6f45f9;
        fill-rule: evenodd;
      }
    </style>
  </defs>
  <path id="shape_4" data-name="shape 4" class="cls-1" d="M445,280H651v7s0.437,32.383,29,49c30.515,17.752,62.137,4.583,72-4,10.362-9.017,22.2-23.3,23-45v-7H981V816H445V280ZM569,567h36l24,128,30-128h33l27,128,28-127h35L737,759H702L675,631,646,759H610ZM776,759l46-191h57l55,191H897l-12-42H820l-9,42H776Z" transform="translate(0.594 9.312)"/>
  <path id="shape_1" data-name="shape 1" class="cls-1" d="M827,685.471l16-71h15l19,71H827Z" transform="translate(0.594 9.312)"/>
  <path id="shape_3" data-name="shape 3" class="cls-1" d="M323,232.471l-122,54s-32,12.311-32,51v412s-4.458,38.615,29,54,497,221,497,221,22.409,11.15,46,1,116-51,116-51,14.081-5.669,14-22c-0.088-17.6-16.3-33.023-36-24s-96,43-96,43-17.573,10.1-37,2-449-198-449-198-24-11.257-24-40v-374a42.353,42.353,0,0,1,25-38c25.972-12.225,88-39,88-39s18-5.765,18-26C360,237.118,338.709,225.966,323,232.471Zm284-127,93-41s19.94-8.9,51,5,485,216,485,216,34,14.168,34,51v422s0.85,30.084-26,43-116,53-116,53-14.98,4.522-25-7-8.79-32.833,5-39,67-29,67-29l8-4s23-12.024,23-46v-369s1.61-26.142-28-39-437-194-437-194-21.48-9.931-40-2-77,34-77,34-22.162,7.988-33-8S584.324,115.515,607,105.471Z" transform="translate(0.594 9.312)"/>
</svg>
