<svg viewBox="0 0 24 24" xmlns="http://www.w3.org/2000/svg" fill="#54D1B0">
  <path
    d="M5.023 14.4711H5.0127V9.71269L11.7075 12.5098C11.7166 12.5136 11.7257 12.5172 11.7348 12.5207C11.8226 12.5622 11.9289 12.583 12.042 12.581C12.1551 12.583 12.2615 12.5622 12.3492 12.5207C12.3584 12.5172 12.3675 12.5136 12.3765 12.5098L19.0125 9.73729V14.4711H19.0021C19.009 14.5093 19.0125 14.5484 19.0125 14.588C19.0125 14.6005 19.0121 14.6128 19.0114 14.6251C18.9973 14.8804 18.8378 15.1069 18.5967 15.2117L12.2968 17.9413C12.2058 17.9802 12.1092 18 12.0126 18C11.9153 18 11.8187 17.9802 11.7277 17.9413L5.42779 15.2117C5.19236 15.1091 5.03453 14.8897 5.01479 14.641C5.0134 14.6234 5.0127 14.6058 5.0127 14.588C5.0127 14.5484 5.01621 14.5093 5.023 14.4711ZM18.7272 8.86192C18.6871 8.83329 18.6435 8.80857 18.5969 8.78842L12.297 6.05886C12.1157 5.98038 11.9092 5.98038 11.7279 6.05886L5.42802 8.78842C5.39 8.80489 5.354 8.82442 5.32029 8.84664L12.042 11.655L18.7272 8.86192Z"
  />
  <path
    d="M6.06462 6.95773C5.93949 6.78761 5.71282 6.7275 5.51984 6.81327L3.54841 7.68946C3.27307 7.81183 3.08001 8.06184 3.02741 8.35276C3.02677 8.3563 3.02369 8.3589 3.02009 8.3589V8.3589C3.01601 8.3589 3.0127 8.36221 3.0127 8.3663V15.2024C3.0127 15.2058 3.01542 15.2085 3.01877 15.2085V15.2085C3.02254 15.2085 3.0254 15.2119 3.02478 15.2156C3.01681 15.2638 3.0127 15.3132 3.0127 15.3632C3.0127 15.3867 3.01361 15.41 3.01539 15.4332C3.04085 15.7623 3.24444 16.0526 3.54812 16.1884L11.6742 19.8C11.7916 19.8515 11.9161 19.8777 12.0416 19.8777C12.1663 19.8777 12.2909 19.8515 12.4082 19.8L14.2808 18.9677C14.5198 18.8615 14.5994 18.5615 14.4444 18.3507V18.3507C14.3306 18.1959 14.1244 18.1411 13.9487 18.2188L12.3373 18.9315C12.2334 18.9769 12.123 19 12.0125 19C11.9013 19 11.791 18.9769 11.687 18.9315L4.48709 15.747C4.21802 15.6273 4.03764 15.3713 4.01509 15.0811C4.0135 15.0607 4.0127 15.0401 4.0127 15.0194C4.0127 14.9753 4.01634 14.9318 4.0234 14.8893C4.02395 14.886 4.02142 14.883 4.01808 14.883V14.883C4.0151 14.883 4.0127 14.8806 4.0127 14.8776V8.84998C4.0127 8.84636 4.01563 8.84342 4.01925 8.84342V8.84342C4.02244 8.84342 4.02516 8.84112 4.02573 8.83799C4.07235 8.58148 4.2434 8.36105 4.48735 8.25315L5.8843 7.63529C6.14719 7.51901 6.23494 7.18929 6.06462 6.95773V6.95773ZM18.2951 16.8352C18.1416 16.6265 18.2207 16.3293 18.4577 16.2245L19.5372 15.747C19.8128 15.6247 19.9951 15.3604 20.0112 15.0627C20.012 15.0483 20.0124 15.0339 20.0124 15.0194C20.0124 14.9753 20.0088 14.9318 20.0017 14.8893C20.0012 14.886 20.0037 14.883 20.007 14.883V14.883C20.01 14.883 20.0124 14.8806 20.0124 14.8776V9.00055L20.0127 8.98001L20.0126 8.96926L20.0124 8.95947V8.84972C20.0124 8.84624 20.0096 8.84342 20.0061 8.84342V8.84342C20.0031 8.84342 20.0005 8.84122 19.9999 8.83821C19.9534 8.5816 19.7822 8.36108 19.5375 8.25315L12.3376 5.06867C12.1304 4.97711 11.8944 4.97711 11.6872 5.06867L10.4765 5.60419C10.2817 5.69035 10.0532 5.62954 9.92697 5.45796V5.45796C9.75514 5.22434 9.84334 4.89172 10.1083 4.77394L11.6745 4.07788C11.9083 3.97404 12.1747 3.97404 12.4085 4.07788L20.5346 7.68946C20.8108 7.81187 21.004 8.06198 21.0565 8.35301C21.0571 8.35641 21.0601 8.3589 21.0635 8.3589V8.3589C21.0675 8.3589 21.0706 8.36208 21.0706 8.366V8.49051L21.0708 8.50161L21.0709 8.5138C21.0709 8.52159 21.0708 8.52935 21.0706 8.5371V15.2024C21.0706 15.2058 21.0679 15.2085 21.0646 15.2085V15.2085C21.0608 15.2085 21.0579 15.2119 21.0585 15.2156C21.0665 15.2638 21.0706 15.3132 21.0706 15.3632C21.0706 15.3796 21.0702 15.396 21.0693 15.4123C21.051 15.75 20.8453 16.0497 20.5343 16.1884L18.7861 16.9654C18.6122 17.0427 18.4079 16.9885 18.2951 16.8352V16.8352Z"
  />
</svg>
